<svg width="20" height="16" viewBox="0 0 20 16" fill="none" xmlns="http://www.w3.org/2000/svg">
<g id="Download and App SVGs_Twitter" clip-path="url(#clip0_3581_9090)">
<path id="Vector" d="M20 1.91124C19.2507 2.23609 18.4566 2.4502 17.6435 2.54661C18.5044 2.04361 19.1492 1.24918 19.4571 0.312183C18.6487 0.783801 17.7638 1.11536 16.8412 1.2924C16.278 0.70251 15.5476 0.292642 14.7446 0.115968C13.9416 -0.060706 13.1032 0.00396826 12.338 0.301601C11.5729 0.599233 10.9164 1.11609 10.4536 1.78511C9.9909 2.45414 9.7433 3.24446 9.74297 4.05355C9.74129 4.36284 9.77677 4.67124 9.84867 4.97235C8.21734 4.89223 6.62142 4.47542 5.16466 3.74904C3.7079 3.02266 2.42291 2.00296 1.39323 0.756234C0.868247 1.64409 0.707177 2.69531 0.942817 3.69585C1.17846 4.69638 1.79309 5.57097 2.66154 6.14153C2.01046 6.12108 1.37379 5.94777 0.804708 5.63607C0.803456 5.65337 0.803456 5.67073 0.804708 5.68803C0.804629 6.61988 1.13224 7.52309 1.73202 8.24457C2.3318 8.96605 3.16684 9.46142 4.0956 9.6467C3.49093 9.80874 2.8565 9.83218 2.24117 9.71519C2.50273 10.5175 3.01302 11.2192 3.70052 11.7219C4.38803 12.2247 5.21829 12.5034 6.07495 12.5189C4.62084 13.6402 2.82559 14.2483 0.97766 14.2455C0.650956 14.2444 0.324562 14.2255 0 14.1888C1.87697 15.3734 4.0608 16.0022 6.29114 16.0004C13.8386 16.0004 17.9654 9.85927 17.9654 4.52122C17.9654 4.34643 17.9654 4.17165 17.9534 3.99922C18.7562 3.42814 19.4492 2.72112 20 1.91124Z" fill="white" fill-opacity="0.7"/>
</g>
<defs>
<clipPath id="clip0_3581_9090">
<rect width="20" height="16" fill="white"/>
</clipPath>
</defs>
</svg>
