<svg width="8" height="16" viewBox="0 0 8 16" fill="none" xmlns="http://www.w3.org/2000/svg">
<g id="Download and App SVGs_FB" clip-path="url(#clip0_3581_9081)">
<path id="Vector" d="M2.36334 15.9996C2.36334 15.9612 2.36334 15.9208 2.36334 15.8824V8.70297H0.103154C0.00184204 8.70297 0.00184204 8.70297 0.00184204 8.60112C0.000614015 7.71714 0 6.83572 0 5.95687C0 5.87616 0.0239466 5.85694 0.0976284 5.85694H2.36703V5.7647C2.36703 5.03061 2.36703 4.29461 2.36703 3.5586C2.36957 2.97047 2.49531 2.39002 2.73544 1.8579C3.05386 1.14775 3.6187 0.590087 4.31591 0.297489C4.79009 0.0915948 5.29996 -0.00981451 5.81349 -0.000372941C6.40663 0.00923552 6.99977 0.0361392 7.58922 0.0591995C7.6979 0.0591995 7.80843 0.0822598 7.91711 0.0880249C7.97974 0.0880249 8 0.114929 8 0.180266C8 0.545387 8 0.91243 8 1.27947C8 1.70993 8 2.14231 8 2.57469C8 2.64964 7.97974 2.6727 7.90605 2.6727C7.45844 2.6727 7.00898 2.66309 6.55952 2.6727C6.35446 2.67739 6.15029 2.70248 5.9498 2.74765C5.77395 2.78171 5.61282 2.87259 5.48919 3.00743C5.36555 3.14226 5.28569 3.31424 5.26088 3.49903C5.23048 3.65987 5.21384 3.82322 5.21114 3.98714C5.21114 4.5867 5.21114 5.18627 5.21114 5.78584C5.21114 5.80313 5.21114 5.82235 5.21114 5.84926H7.79001C7.89869 5.84926 7.89869 5.84926 7.88579 5.95687C7.82685 6.42768 7.76606 6.8985 7.70159 7.36931C7.6537 7.76262 7.60642 8.15657 7.55975 8.55115C7.54317 8.70297 7.54686 8.70297 7.40134 8.70297H5.19088V15.8267C5.19088 15.8843 5.19088 15.942 5.19088 15.9996H2.36334Z" fill="white" fill-opacity="0.7"/>
</g>
<defs>
<clipPath id="clip0_3581_9081">
<rect width="8" height="16" fill="white"/>
</clipPath>
</defs>
</svg>
