<svg width="16" height="16" viewBox="0 0 16 16" fill="none" xmlns="http://www.w3.org/2000/svg">
<g id="Download and App SVGs_LinkedIn" clip-path="url(#clip0_3581_9087)">
<path id="Vector" d="M0.264538 5.31387H3.58694V16H0.264538V5.31387ZM1.9235 1.31046e-06C2.30403 1.56939e-06 2.676 0.113075 2.99237 0.324917C3.30873 0.536759 3.55527 0.837849 3.70079 1.19009C3.84631 1.54234 3.88427 1.92991 3.80987 2.30378C3.73547 2.67764 3.55205 3.021 3.28282 3.2904C3.01359 3.55981 2.67065 3.74316 2.29738 3.81726C1.92411 3.89136 1.53729 3.85288 1.18585 3.70669C0.834419 3.56049 0.534165 3.31315 0.323079 2.99596C0.111992 2.67877 -0.000442198 2.30598 1.30703e-06 1.92476C1.13514e-06 1.67181 0.0497701 1.42134 0.146462 1.18767C0.243155 0.954 0.384874 0.741716 0.563516 0.562956C0.742159 0.384196 0.954221 0.242466 1.18758 0.14587C1.42093 0.0492738 1.67101 -0.00029385 1.9235 1.31046e-06Z" fill="white" fill-opacity="0.7"/>
<path id="Vector_2" d="M5.66016 5.31414H8.83908V6.77399H8.88392C9.33229 5.93402 10.4084 5.04688 12.0225 5.04688C15.3853 5.04688 15.9995 7.26136 15.9995 10.1384V16.0003H12.6861V10.8032C12.6861 9.56344 12.6637 7.96883 10.9621 7.96883C9.26055 7.96883 8.96687 9.32088 8.96687 10.7134V16.0003H5.66016V5.31414Z" fill="white" fill-opacity="0.7"/>
</g>
<defs>
<clipPath id="clip0_3581_9087">
<rect width="16" height="16" fill="white"/>
</clipPath>
</defs>
</svg>
