<svg width="16" height="16" viewBox="0 0 16 16" fill="none" xmlns="http://www.w3.org/2000/svg">
<g id="Download and App SVGs_IG" clip-path="url(#clip0_3581_9083)">
<path id="Vector" d="M11.3455 16H4.65447C3.42238 15.9948 2.24221 15.5164 1.3706 14.6688C0.498986 13.8212 0.00641681 12.673 0 11.4738V4.53017C0.00534843 3.3303 0.497446 2.18105 1.36917 1.33261C2.2409 0.484161 3.42168 0.00520559 4.65447 0L11.3455 0C12.5783 0.00520559 13.7591 0.484161 14.6308 1.33261C15.5026 2.18105 15.9947 3.3303 16 4.53017V11.4738C15.9936 12.673 15.501 13.8212 14.6294 14.6688C13.7578 15.5164 12.5776 15.9948 11.3455 16ZM11.3455 14.8131C12.2541 14.8104 13.1245 14.4576 13.7664 13.8318C14.4083 13.2059 14.7693 12.3581 14.7703 11.4738V4.53017C14.7666 3.64724 14.4046 2.80151 13.7631 2.17717C13.1216 1.55284 12.2527 1.20048 11.3455 1.19683H4.65447C3.74764 1.20151 2.87932 1.5542 2.23808 2.17831C1.59685 2.80242 1.23448 3.64756 1.22967 4.53017V11.4738C1.23449 12.356 1.59699 13.2008 2.23834 13.8242C2.87969 14.4477 3.74801 14.7995 4.65447 14.8032L11.3455 14.8131Z" fill="white" fill-opacity="0.7"/>
<path id="Vector_2" d="M12.4312 7.93824C12.4312 8.78649 12.1727 9.61569 11.6885 10.321C11.2044 11.0263 10.5161 11.576 9.71097 11.9006C8.90578 12.2252 8.01978 12.3101 7.165 12.1447C6.31023 11.9792 5.52506 11.5707 4.9088 10.9709C4.29254 10.3711 3.87286 9.6069 3.70284 8.77495C3.53281 7.943 3.62007 7.08066 3.95359 6.29698C4.28711 5.5133 4.8519 4.84347 5.57655 4.37221C6.30119 3.90095 7.15315 3.64941 8.02467 3.64941C8.60334 3.64941 9.17634 3.76035 9.71097 3.97588C10.2456 4.19141 10.7314 4.50733 11.1405 4.90558C11.5497 5.30384 11.8743 5.77663 12.0957 6.29698C12.3172 6.81732 12.4312 7.37502 12.4312 7.93824ZM8.00434 5.14298C7.43351 5.14298 6.8755 5.30774 6.40087 5.6164C5.92624 5.92507 5.55631 6.36379 5.33786 6.87709C5.11942 7.39039 5.06226 7.9552 5.17362 8.50011C5.28499 9.04503 5.55987 9.54556 5.96351 9.93842C6.36715 10.3313 6.88142 10.5988 7.44128 10.7072C8.00114 10.8156 8.58146 10.76 9.10884 10.5474C9.63622 10.3347 10.087 9.97469 10.4041 9.51274C10.7213 9.05078 10.8905 8.50767 10.8905 7.95209C10.8905 7.20707 10.5864 6.49256 10.0452 5.96575C9.50392 5.43894 8.76981 5.14298 8.00434 5.14298Z" fill="white" fill-opacity="0.7"/>
<path id="Vector_3" d="M13.5443 3.58217C13.5451 3.78305 13.4847 3.97965 13.3706 4.14706C13.2565 4.31447 13.094 4.44516 12.9035 4.52257C12.713 4.59999 12.5033 4.62065 12.3007 4.58194C12.0982 4.54323 11.912 4.44689 11.7658 4.30513C11.6196 4.16336 11.5199 3.98254 11.4793 3.78557C11.4388 3.5886 11.4592 3.38435 11.538 3.19868C11.6168 3.01302 11.7504 2.85429 11.922 2.7426C12.0935 2.63091 12.2953 2.57129 12.5017 2.57129C12.7775 2.57129 13.0421 2.67766 13.2375 2.86713C13.4329 3.05659 13.5433 3.3137 13.5443 3.58217Z" fill="white" fill-opacity="0.7"/>
</g>
<defs>
<clipPath id="clip0_3581_9083">
<rect width="16" height="16" fill="white"/>
</clipPath>
</defs>
</svg>
